<svg xmlns="http://www.w3.org/2000/svg" xmlns:xlink="http://www.w3.org/1999/xlink" id="Camada_2" data-name="Camada 2" viewBox="0 0 126.27 51.98"><defs><style>      .cls-1 {        fill: url(#linear-gradient);      }      .cls-1, .cls-2, .cls-3 {        stroke-width: 0px;      }      .cls-2 {        fill: #231f20;      }      .cls-3 {        fill: #ed7a2b;      }    </style><linearGradient id="linear-gradient" x1="63.31" y1=".13" x2="63.31" y2="31.55" gradientUnits="userSpaceOnUse"><stop offset="0" stop-color="#f19220"></stop><stop offset="1" stop-color="#e4087e"></stop></linearGradient></defs><g id="Layer_1" data-name="Layer 1"><g><g><path class="cls-1" d="m77.64,32.22c-3.69,0-6.68-3-6.68-6.68v-7.1l-6.62,7.95c-.25.31-.63.48-1.03.48s-.78-.18-1.03-.48l-6.62-7.95v7.1c0,3.68-2.99,6.68-6.68,6.68s-6.68-3-6.68-6.68V1.34c0-.74.6-1.34,1.34-1.34s1.34.6,1.34,1.34v24.2c0,2.2,1.79,4,4,4s4-1.79,4-4v-10.81c0-.57.35-1.07.88-1.26.53-.19,1.13-.03,1.49.4l7.96,9.56,7.96-9.56c.36-.43.95-.59,1.49-.4.53.19.88.7.88,1.26v10.81c0,2.2,1.79,4,4,4s3.99-1.79,3.99-4V1.36c0-.74.6-1.34,1.34-1.34s1.34.6,1.34,1.34v24.19c0,3.68-3,6.68-6.67,6.68Z"></path><path class="cls-3" d="m63.31,13.45h0c-.4,0-.78-.18-1.03-.48l-8.97-10.77c-.33-.4-.4-.96-.18-1.43.22-.47.69-.77,1.21-.77h17.93c.52,0,1,.3,1.22.77.22.47.15,1.03-.18,1.43l-8.96,10.77c-.25.31-.63.48-1.03.48Z"></path></g><g><g><path class="cls-2" d="m8.56,46.95h-2.86v-.73h3.64v4.03c-.72.64-2.03,1.32-4.12,1.32-3.11,0-5.21-2.32-5.21-5.63,0-3.14,2.11-5.62,5.21-5.62,2.51,0,3.62,1.61,3.88,2.05l-.58.4c-.24-.32-1.19-1.72-3.22-1.72-2.78,0-4.46,2.14-4.46,4.89s1.66,4.91,4.38,4.91c1.66,0,2.66-.42,3.35-.92v-2.98Z"></path><path class="cls-2" d="m11.93,40.57h3.23c2.78,0,3.8,1.29,3.8,3.04,0,1.4-.69,2.57-2.25,2.94l2.56,4.75h-.89l-2.49-4.65h-3.19v4.65h-.77v-10.74Zm3.56,5.36c1.77,0,2.65-.77,2.65-2.32s-.95-2.32-2.75-2.32h-2.69v4.63h2.78Z"></path><path class="cls-2" d="m21.24,40.57h.77v6.05c0,2.45.67,4.22,3.33,4.22s3.33-1.77,3.33-4.22v-6.05h.77v6.46c0,2.53-.96,4.54-4.1,4.54s-4.1-2.01-4.1-4.54v-6.46Z"></path><path class="cls-2" d="m32.16,40.57h3.3c2.78,0,3.74,1.34,3.74,3.09s-.95,3.09-3.74,3.09h-2.53v4.56h-.77v-10.74Zm3.52,5.46c1.8,0,2.67-.82,2.67-2.37s-.87-2.36-2.67-2.36h-2.75v4.73h2.75Z"></path><path class="cls-2" d="m40.75,45.95c0-3.15,2.25-5.63,5.33-5.63s5.33,2.48,5.33,5.63-2.25,5.62-5.33,5.62-5.33-2.46-5.33-5.62Zm9.83,0c0-2.72-1.79-4.91-4.5-4.91s-4.51,2.19-4.51,4.91,1.79,4.89,4.51,4.89,4.5-2.17,4.5-4.89Z"></path></g><path class="cls-2" d="m72.23,44.57v7.03h-2.59c-1.21,0-1.4-1.03-1.42-1.21v-4.75c0-1.21-.45-1.95-1.52-1.95s-1.83.74-1.83,1.95v5.96h-2.36c-1.11,0-1.36-.87-1.41-1.15v-4.81c0-1.21-.4-1.95-1.52-1.95-1.02,0-1.83.74-1.83,1.95v5.96h-2.6c-1.1,0-1.35-.85-1.41-1.14v-10.02h2.59c1.23,0,1.4,1.06,1.42,1.22v.02c.86-1.07,2.09-1.52,3.23-1.52,2.11,0,2.9,1.12,3.2,1.5.71-.78,2.35-1.5,3.63-1.5,2.87,0,4.42,1.69,4.42,4.42Zm21.52-4.32c-1.33,0-2.23.71-2.87,1.59l-.03-.32c-.08-.33-.36-1.09-1.39-1.09h-2.59v9.96c.03.19.22,1.2,1.42,1.2h2.6v-5.01c0-1.92.88-2.87,2.61-2.87.4,0,.78.05,1.16.14l.52-3.42c-.36-.12-.78-.19-1.42-.19Zm28.43-.1c-.83,0-2.31.35-3.22,1.43-.02.05-.04.09-.04.09,0,0-.1-1.24-1.42-1.24h-2.57v9.96c.03.21.23,1.2,1.42,1.2h2.6v-5.96c0-.95.4-1.95,1.85-1.95,1.02,0,1.45.71,1.45,1.83v4.89c.03.22.24,1.19,1.41,1.19h2.6v-7.03c0-3.13-1.74-4.42-4.08-4.42Zm-23.3-4.39h-2.63v14.67c.04.26.28,1.16,1.41,1.16h2.6v-14.62c-.02-.15-.19-1.19-1.38-1.21Zm-14.21,9.09v6.74h-2.41c-1.32,0-1.42-1.24-1.42-1.24,0,0-.03.08-.08.2h0c-1.02,1.06-1.92,1.42-3.45,1.42s-3.49-.71-3.49-3.37,2.47-4.09,5.34-4.09c.74,0,1.04.02,1.59.1v-.21c0-1.14-1.04-1.4-1.85-1.4-.7,0-1.31.11-1.84.27-.08.02-.16.04-.24.08-.96.39-1.53-.15-1.77-.45l-.13-.2h0s-.72-1.09-.72-1.09c.95-.76,2.61-1.52,5.27-1.52,3.09,0,5.2,1.62,5.2,4.77Zm-3.92,1.92c-.26-.07-.64-.1-1.09-.1-1.33,0-1.95.6-1.95,1.33,0,.83.45,1.23,1.33,1.23s1.71-.4,1.71-1.73v-.73Zm32-1.92v6.74h-2.41c-1.32,0-1.42-1.24-1.42-1.24,0,0-.03.08-.08.2h0c-1.02,1.06-1.93,1.42-3.45,1.42s-3.49-.71-3.49-3.37,2.47-4.09,5.34-4.09c.74,0,1.05.02,1.59.1v-.21c0-1.14-1.05-1.4-1.85-1.4-.7,0-1.31.11-1.84.27-.07.02-.16.04-.24.08-.96.39-1.53-.15-1.77-.45l-.13-.2h0s-.72-1.09-.72-1.09c.95-.76,2.61-1.52,5.27-1.52,3.09,0,5.2,1.62,5.2,4.77Zm-3.92,1.92c-.26-.07-.64-.1-1.09-.1-1.33,0-1.95.6-1.95,1.33,0,.83.45,1.23,1.32,1.23s1.71-.4,1.71-1.73v-.73Z"></path></g></g></g></svg>